# xmcd
#
# Track frame offsets:
#	300
#	12575
#	24630
#	38592
#	48140
#	61155
#	70847
#	82172
#	93130
#	104597
#
# Disc length: 1556 seconds
#
# Revision: 0
# Processed by: cddbd v1.5.1PL0 Copyright (c) Steve Scherf et al.
# Submitted via: audiograbber 1.83.01
#
DISCID=7b06100a
DTITLE=Elvis Presley - Elvis (Remastered)
DYEAR=1994
DGENRE=Pop
TTITLE0=Fool
TTITLE1=Where Do I Go From Here
TTITLE2=Love Me, Love The Life I Lead
TTITLE3=It's Still Here
TTITLE4=It's Impossible
TTITLE5=(That's What You Get) For Lovin' Me
TTITLE6=Padre
TTITLE7=I'll Take You Home Again Kathleen
TTITLE8=I Will Be True
TTITLE9=Don't Think Twice, It's All Right
EXTD=RCA 07863 50283-2
EXTT0=
EXTT1=
EXTT2=
EXTT3=
EXTT4=
EXTT5=
EXTT6=
EXTT7=
EXTT8=
EXTT9=
PLAYORDER=
